<!-- Generated by IcoMoon.io -->
<svg version="1.1" xmlns="http://www.w3.org/2000/svg" width="32" height="32" viewBox="0 0 32 32">
<title>logo</title>
<path fill="#002a47" d="M31.44 15.998c0 8.528-6.913 15.442-15.442 15.442s-15.442-6.913-15.442-15.442c0-8.528 6.913-15.442 15.442-15.442s15.442 6.913 15.442 15.442z"></path>
<path fill="#ffc022" d="M15.998 0.557c8.528 0 15.442 6.913 15.442 15.442s-6.913 15.442-15.442 15.442c-8.528 0-15.442-6.913-15.442-15.442v0c0-8.528 6.913-15.442 15.442-15.442v0zM15.998 0.061c-8.804 0-15.941 7.137-15.941 15.941s7.137 15.941 15.941 15.941c8.804 0 15.941-7.137 15.941-15.941 0-0.001 0-0.002 0-0.003v0c-0.011-8.799-7.142-15.928-15.94-15.938h-0.001z"></path>
<path fill="#002f56" d="M29.687 15.998c0 7.56-6.128 13.688-13.688 13.688s-13.688-6.128-13.688-13.688c0-7.56 6.128-13.688 13.688-13.688s13.688 6.128 13.688 13.688z"></path>
<path fill="#00293f" d="M15.998 29.939c-7.699 0-13.941-6.242-13.941-13.941s6.242-13.941 13.941-13.941c7.699 0 13.941 6.242 13.941 13.941v0c-0.007 7.696-6.245 13.934-13.94 13.941h-0.001zM15.998 2.56c-7.422 0-13.439 6.017-13.439 13.439s6.017 13.439 13.439 13.439c7.422 0 13.439-6.017 13.439-13.439v0c0-7.422-6.017-13.439-13.439-13.439v0z"></path>
<path fill="#036" d="M27.92 15.998c0 6.584-5.338 11.922-11.922 11.922s-11.922-5.338-11.922-11.922c0-6.584 5.338-11.922 11.922-11.922s11.922 5.338 11.922 11.922z"></path>
<path fill="#002e47" d="M15.998 28.157c-6.715 0-12.159-5.444-12.159-12.159s5.444-12.159 12.159-12.159c6.715 0 12.159 5.444 12.159 12.159v0c-0.015 6.709-5.45 12.144-12.157 12.159h-0.001zM15.998 4.316c-6.443 0.002-11.666 5.226-11.666 11.669 0 6.445 5.225 11.669 11.669 11.669 6.44 0 11.662-5.217 11.669-11.656v-0.001c-0.007-6.443-5.229-11.664-11.672-11.669h-0.001z"></path>
<path fill="#003159" d="M25.578 15.998c0 5.291-4.289 9.58-9.58 9.58s-9.58-4.289-9.58-9.58c0-5.291 4.289-9.58 9.58-9.58s9.58 4.289 9.58 9.58z"></path>
<path fill="#ffc022" d="M15.998 26.077c-5.563-0.002-10.073-4.512-10.073-10.076 0-5.565 4.511-10.076 10.076-10.076 5.564 0 10.074 4.509 10.076 10.072v0c-0.005 5.564-4.515 10.074-10.078 10.079h-0.001zM15.998 6.918c-5.017 0-9.084 4.067-9.084 9.084s4.067 9.084 9.084 9.084c5.017 0 9.084-4.067 9.084-9.084 0-0.001 0-0.002 0-0.003v0c-0.007-5.013-4.070-9.075-9.083-9.081h-0.001z"></path>
<path fill="#fff" d="M19.284 11.922h-2.045c-0.007 0-0.013-0.006-0.013-0.013v-1.894c0-0.007 0.006-0.013 0.013-0.013h2.045c0.007 0 0.013 0.006 0.013 0.013v1.894c0 0.007-0.006 0.013-0.013 0.013z"></path>
<path fill="#fff" d="M14.76 21.998h-2.045c-0.007 0-0.013-0.006-0.013-0.013v-1.894c0-0.007 0.006-0.013 0.013-0.013h2.045c0.007 0 0.013 0.006 0.013 0.013v1.894c0 0.007-0.006 0.013-0.013 0.013z"></path>
<path fill="#fff" d="M19.284 21.998h-2.045c-0.007 0-0.013-0.006-0.013-0.013v-1.894c0-0.007 0.006-0.013 0.013-0.013h2.045c0.007 0 0.013 0.006 0.013 0.013v1.894c0 0.007-0.006 0.013-0.013 0.013z"></path>
<path fill="#fff" d="M14.76 11.922h-2.045c-0.007 0-0.013-0.006-0.013-0.013v-1.894c0-0.007 0.006-0.013 0.013-0.013h2.045c0.007 0 0.013 0.006 0.013 0.013v1.894c0 0.007-0.006 0.013-0.013 0.013z"></path>
<path fill="#ffc022" d="M21.691 16.424l-1.459-1.459h-7.618l-0.845-0.845 0.845-0.845h8.428c0.125 0 0.227-0.102 0.227-0.227v0-1.619c0-0.125-0.102-0.227-0.227-0.227v0h-9.279l-2.918 2.918 2.893 2.892 0.029 0.026h7.622l0.845 0.845-0.845 0.845h-8.428c-0.125 0-0.227 0.102-0.227 0.227v0 1.619c0 0.125 0.102 0.227 0.227 0.227h9.279l2.918-2.918z"></path>
<path fill="#fff" d="M14.773 18.728v-1.686h2.454v1.686h2.070v-5.452h-2.070v1.689h-2.454v-1.689h-2.070v5.452h2.070z"></path>
<path fill="#4a4a4a" d="M19.137 10.002c0.088 0 0.16 0.072 0.16 0.16v0 1.037h1.744c0.125 0 0.227 0.102 0.227 0.227v0 1.619c0 0.125-0.102 0.227-0.227 0.227v0h-1.744v1.689h0.938l2.918 2.918-2.918 2.918h-0.938v1.037c0 0.088-0.072 0.16-0.16 0.16v0h-1.75c-0.088 0-0.16-0.072-0.16-0.16v0-1.037h-2.454v1.037c0 0.088-0.072 0.16-0.16 0.16v0h-1.75c-0.088 0-0.16-0.072-0.16-0.16v0-1.037h-1.744c-0.125 0-0.227-0.102-0.227-0.227v0-1.616c0-0.125 0.102-0.227 0.227-0.227h1.744v-1.686h-0.934l-0.029-0.026-2.893-2.893 1.459-1.459 1.459-1.465h0.938v-1.037c0-0.088 0.072-0.16 0.16-0.16v0h1.75c0.088 0 0.16 0.072 0.16 0.16v0 1.037h2.454v-1.037c0-0.088 0.072-0.16 0.16-0.16v0h1.75zM19.137 9.714h-1.75c-0.247 0-0.448 0.201-0.448 0.448v0 0.755h-1.878v-0.755c0-0.247-0.201-0.448-0.448-0.448v0h-1.75c-0.247 0-0.448 0.201-0.448 0.448v0 0.755h-0.768l-1.542 1.542-1.667 1.661 3.094 3.094 0.038 0.035 0.083 0.074h0.762v1.12h-1.456c-0.283 0-0.512 0.229-0.512 0.512v0 1.619c0 0.283 0.229 0.512 0.512 0.512v0h1.456v0.749c0 0.247 0.201 0.448 0.448 0.448h1.75c0.247 0 0.448-0.201 0.448-0.448v0-0.749h1.881v0.749c0 0.247 0.201 0.448 0.448 0.448v0h1.75c0.247 0 0.448-0.201 0.448-0.448v0-0.749h0.768l3.203-3.203-0.202-0.202-1.462-1.459-1.542-1.542h-0.768v-1.12h1.456c0.283 0 0.512-0.229 0.512-0.512v0-1.619c0-0.283-0.229-0.512-0.512-0.512v0h-1.456v-0.755c0-0.247-0.201-0.448-0.448-0.448v0z"></path>
</svg>
