<?xml version="1.0" standalone="no"?>
<!DOCTYPE svg PUBLIC "-//W3C//DTD SVG 20010904//EN"
 "http://www.w3.org/TR/2001/REC-SVG-20010904/DTD/svg10.dtd">
<svg version="1.0" xmlns="http://www.w3.org/2000/svg"
 width="700.000000pt" height="700.000000pt" viewBox="0 0 700.000000 700.000000"
 preserveAspectRatio="xMidYMid meet">
<metadata>
Created by potrace 1.11, written by Peter Selinger 2001-2013
</metadata>
<g transform="translate(0.000000,700.000000) scale(0.100000,-0.100000)"
fill="#000000" stroke="none">
<path d="M3337 6984 c-1 -1 -45 -5 -97 -8 -137 -10 -296 -32 -445 -61 -407
-79 -867 -272 -1225 -513 -339 -228 -622 -496 -857 -807 -60 -81 -203 -292
-203 -301 0 -2 -20 -37 -44 -77 -100 -164 -222 -446 -295 -682 -54 -174 -69
-237 -115 -480 -2 -11 -7 -49 -11 -85 -4 -36 -8 -67 -10 -70 -17 -28 -25 -530
-11 -685 8 -83 32 -271 41 -315 3 -14 8 -41 11 -60 23 -135 118 -473 158 -565
8 -16 29 -68 47 -115 68 -176 244 -498 355 -650 78 -106 102 -138 147 -195
113 -141 278 -314 407 -425 41 -36 77 -67 80 -70 26 -27 172 -136 272 -203
196 -133 289 -185 573 -318 80 -37 331 -127 401 -144 10 -3 69 -18 129 -35 61
-16 111 -29 113 -29 1 0 15 -2 30 -5 15 -3 40 -8 56 -10 16 -3 52 -10 80 -15
28 -6 78 -13 111 -16 32 -4 62 -8 65 -10 14 -8 243 -19 400 -19 151 0 337 9
389 19 9 1 43 6 75 10 33 3 107 15 165 26 59 11 117 22 131 25 55 10 291 78
380 109 203 71 423 170 573 259 43 25 81 46 83 46 9 0 219 143 299 204 72 54
143 112 229 186 57 50 213 208 281 285 39 44 75 85 80 91 15 16 109 140 163
214 292 399 522 968 597 1477 3 18 8 50 11 70 33 223 37 616 9 848 -15 120
-19 148 -30 205 -3 14 -7 41 -10 60 -5 30 -38 175 -49 220 -97 369 -253 720
-461 1040 -49 76 -221 306 -253 338 -9 10 -32 36 -50 57 -65 77 -220 231 -333
330 -141 124 -375 292 -515 370 -27 15 -53 30 -59 35 -16 12 -204 106 -278
140 -300 134 -659 237 -962 274 -22 3 -58 8 -80 11 -104 13 -536 28 -548 19z"/>
</g>
</svg>
